<svg width="50" height="46" viewBox="0 0 50 46" fill="none" xmlns="http://www.w3.org/2000/svg">
<path fill-rule="evenodd" clip-rule="evenodd" d="M25.0207 0.102783C11.1849 0.102783 0 10.6091 0 23.6068C0 33.9966 7.16655 42.7914 17.1084 45.9041C18.3514 46.1381 18.8067 45.3984 18.8067 44.7761C18.8067 44.2312 18.7658 42.3635 18.7658 40.4174C11.8056 41.8186 10.3562 37.6156 10.3562 37.6156C9.23769 34.8916 7.58037 34.1915 7.58037 34.1915C5.30231 32.7516 7.7463 32.7516 7.7463 32.7516C10.2733 32.9073 11.5992 35.1643 11.5992 35.1643C13.8358 38.744 17.4398 37.7326 18.8897 37.1098C19.0966 35.5921 19.7599 34.5415 20.4641 33.9579C14.9128 33.413 9.07227 31.3896 9.07227 22.3614C9.07227 19.793 10.0658 17.6918 11.6402 16.0576C11.3918 15.474 10.5217 13.0609 11.8891 9.83115C11.8891 9.83115 14.0017 9.20841 18.7653 12.2438C20.8047 11.7293 22.9079 11.4676 25.0207 11.4654C27.1333 11.4654 29.2869 11.738 31.2756 12.2438C36.0396 9.20841 38.1523 9.83115 38.1523 9.83115C39.5197 13.0609 38.6491 15.474 38.4007 16.0576C40.0165 17.6918 40.9691 19.793 40.9691 22.3614C40.9691 31.3896 35.1285 33.3739 29.5358 33.9579C30.4475 34.6972 31.2341 36.0979 31.2341 38.3161C31.2341 41.468 31.1931 43.9977 31.1931 44.7756C31.1931 45.3984 31.649 46.1381 32.8914 45.9046C42.8333 42.7909 49.9999 33.9966 49.9999 23.6068C50.0409 10.6091 38.815 0.102783 25.0207 0.102783Z" fill="white"/>
</svg>
