<svg width="50" height="50" viewBox="0 0 50 50" fill="none" xmlns="http://www.w3.org/2000/svg">
<path d="M44.6429 0H5.35714C2.39844 0 0 2.39844 0 5.35714V44.6429C0 47.6016 2.39844 50 5.35714 50H44.6429C47.6016 50 50 47.6016 50 44.6429V5.35714C50 2.39844 47.6016 0 44.6429 0ZM19.8791 25.6813C9.7577 18.3356 9.86083 18.3171 7.14286 16.2017V13.3929C7.14286 11.9135 8.34208 10.7143 9.82143 10.7143H40.1786C41.6579 10.7143 42.8571 11.9135 42.8571 13.3929V16.2017C40.1372 18.3188 40.2417 18.336 30.1209 25.6814C28.949 26.5357 26.6173 28.5965 25 28.5713C23.3814 28.5956 21.0528 26.5371 19.8791 25.6813ZM42.8571 20.7338V36.6071C42.8571 38.0865 41.6579 39.2857 40.1786 39.2857H9.82143C8.34208 39.2857 7.14286 38.0865 7.14286 36.6071V20.7338C8.70067 21.9385 10.8626 23.5503 17.7794 28.5702C19.3599 29.7243 22.0176 32.1578 24.9997 32.1427C28.0004 32.1577 30.6958 29.6828 32.2229 28.5685C39.1378 23.5501 41.2993 21.9384 42.8571 20.7338Z" fill="white"/>
</svg>
