<svg width="331" height="368" viewBox="0 0 331 368" fill="none" xmlns="http://www.w3.org/2000/svg">
<g filter="url(#filter0_i_2_189)">
<g filter="url(#filter1_if_2_189)">
<g filter="url(#filter2_i_2_189)">
<path d="M125 125.5H117.5L103 146.5L95 166.5L84.5 214.5V249.5L92 274.5L95 280L100.5 289L108 307L118 315L123.5 326L131 335L139.5 338.5L162.5 359.5H192L276 347.5L316.5 297.5L322 289L326 265.5L323.5 243.5L319.5 231L316.5 219L315 211.5L299 186.5L281.5 164L271.5 157L266.5 149.5L253 142.5L227.5 122.5L207.5 113.5L159 111.5L143 119H133.5L125 125.5Z" fill="#D3F9F6"/>
</g>
<g filter="url(#filter3_i_2_189)">
<path d="M166 122.5L145 118.5L161 111.5H202.5L212 114L227 122.5L242 132.5L253.5 142L267 151.5L280.5 163L268.5 157.5H262.5L248 151.5L240 142H227L198.5 132.5L180.5 128.5L166 122.5Z" fill="#51C0C0"/>
<path d="M288 233L282 215.5L197.5 282L190.5 290.5L183.5 297.5L180.5 306L188.5 303.5H193H202.5H214.5L220.5 299.5L230.5 290.5L239 288L243.5 282L252.5 275L263 272.5L282 275L286.5 264L289 253.5L288 233Z" fill="#51C0C0"/>
</g>
<g filter="url(#filter4_i_2_189)">
<path d="M169.5 257.5L172 239.5L180 225.5L195 203L210 182.5L224.5 170.5L239.5 162.5L250.5 160.5L266 167L280.5 179V187.5L287 192L284.5 212L275.5 221.5L258.5 241.5L254.5 250L233.5 275.5L210 289.5L192 286.5L175 273L167.5 266V261L169.5 257.5Z" fill="#D3F9F6"/>
<path d="M95.5 149.5L98.5 157.5V234L89 261L79 283L77 296L71.5 304L41.5 327H36.5L29.5 329L18 316.5L12.5 302V283L52.5 152L64 144.5L79 140.5L89 144.5L95.5 149.5Z" fill="#D3F9F6"/>
</g>
<g filter="url(#filter5_d_2_189)">
<path d="M197.5 281L173 271.5L197.5 287H214.5L237 271.5L245 259.5L279.5 220.5L286.5 205.5L282.5 194L269.5 197L254.5 211.5L249.5 224.5H245L222.5 249.5L208.5 281H197.5Z" fill="#51C0C0"/>
<path d="M26.5 310.5L24 325L30.5 330.5L34 327.5C36.1667 327.667 40.7 327.9 41.5 327.5C42.3 327.1 56.1667 316 63 310.5L77.5 295.5L76.5 292L67.5 297L63 295.5L56 299L47.5 297L38.5 300L34 307.5L26.5 310.5Z" fill="#51C0C0"/>
<path d="M82.5 245.5V281L90 262L86 241.5L90 221L92 203.5L94 175L99.5 154.5L92 172L86 211.5L82.5 245.5Z" fill="#51C0C0"/>
</g>
<g filter="url(#filter6_i_2_189)">
<path d="M120 308.5L113.5 298.5L129 313.5L142 331.5L156.5 343L172.5 353.5L190 361H162.5L149 348L136 336L129 325L120 317L113.5 308.5H120Z" fill="#51C0C0"/>
<path d="M93.5 177L98 156.5L90 170.5L84.5 211V249.5L90 272.5L87.5 243L90 233.5V206.5L93.5 192V177Z" fill="#51C0C0"/>
</g>
<g filter="url(#filter7_i_2_189)">
<path d="M117.5 36L109.5 48.5L107 65L109.5 69.5L113 78.5L119.5 87V94L148.5 114.5L153 112L186 118.5L229 108L248.5 97.5L254.5 87L262 56.5L192 8L172.5 12.5L156 20.5L134.5 25L117.5 36Z" fill="#D3F9F6"/>
</g>
<g filter="url(#filter8_i_2_189)">
<path d="M182 301L196.5 284.5V287L210.5 289.5L226 283L238 270H242L276.5 274L295 281L314.5 295.5L328 314L329.5 329V340.5L312.5 357.5V362.5L284.5 364.5L231.5 367L196.5 364.5L182 347.5L179.5 335L176.5 314L182 301Z" fill="#D3F9F6"/>
<path d="M28 331L19.5 320L8 326L1 335V345L3.5 358L8 364.5L142 360L148 347.5L142 342.5L134.5 335L121.5 326L120.5 322L114 314L94.5 304L88 310L86 314L49 324.5L38 327.5L28 331Z" fill="#D3F9F6"/>
</g>
<g filter="url(#filter9_i_2_189)">
<path d="M184 305H180.5L186 296L194 287L196.5 282L209 287L232 271.5L238 265L266 273H258L243.5 282L235 290H230.5L220.5 300L212.5 303H204H189L184 305Z" fill="#51C0C0"/>
<path d="M28.5 330L22 321.5L31.5 328L45 321.5L56 314L70.5 300L92.5 303V307H89V310L83 316.5L61.5 321.5L48.5 328H38.5L28.5 330Z" fill="#51C0C0"/>
</g>
<g filter="url(#filter10_i_2_189)">
<path d="M130 87L121 91.5L122.5 95L149 114.5L155 112.5L189.5 118.5L209.5 112.5L237.5 106.5L251.5 97.5L255.5 81L234.5 40L228.5 56.5V76L234.5 97.5L209.5 106.5L195.5 97.5L177.5 94L165 100L155 91.5L147 94L130 87Z" fill="#51C0C0"/>
</g>
<g filter="url(#filter11_i_2_189)">
<path d="M224 52.5L227.5 30L242 22H251L262.5 26L272 38.5L276.5 52.5L272 68L247 81L244 78L236.5 76L233.5 68L224 52.5Z" fill="#D3F9F6"/>
<path d="M94.5 38.5L103.5 9.5L113.5 3.5H125.5L135 1L144 3.5L155.5 9.5L158 22L144 23.5L122 34L111 45.5L109 54.5H101L94.5 38.5Z" fill="#D3F9F6"/>
</g>
<g filter="url(#filter12_i_2_189)">
<path d="M235.5 61L226.5 55.5L230 65.5L235.5 71L237.5 76.5H242L250 81L262.5 75L273 67.5L275.5 55.5L269 61L262.5 58L248 61L243 58L235.5 61Z" fill="#51C0C0"/>
<path d="M102 46.5H97.5L102 55.5H110V48.5L115.5 41.5L124 32L136 26.5L148 23.5L154.5 20.5V13.5L153 10L148 16.5L145.5 14.5L132.5 16.5L129.5 14.5L118 16.5L108.5 26.5L99.75 41.5L102 46.5Z" fill="#51C0C0"/>
</g>
</g>
</g>
<defs>
<filter id="filter0_i_2_189" x="1" y="-3" width="328.5" height="370" filterUnits="userSpaceOnUse" color-interpolation-filters="sRGB">
<feFlood flood-opacity="0" result="BackgroundImageFix"/>
<feBlend mode="normal" in="SourceGraphic" in2="BackgroundImageFix" result="shape"/>
<feColorMatrix in="SourceAlpha" type="matrix" values="0 0 0 0 0 0 0 0 0 0 0 0 0 0 0 0 0 0 127 0" result="hardAlpha"/>
<feOffset dy="-4"/>
<feGaussianBlur stdDeviation="2"/>
<feComposite in2="hardAlpha" operator="arithmetic" k2="-1" k3="1"/>
<feColorMatrix type="matrix" values="0 0 0 0 0.317647 0 0 0 0 0.752941 0 0 0 0 0.752941 0 0 0 1 0"/>
<feBlend mode="normal" in2="shape" result="effect1_innerShadow_2_189"/>
</filter>
<filter id="filter1_if_2_189" x="0" y="-3" width="330.5" height="371" filterUnits="userSpaceOnUse" color-interpolation-filters="sRGB">
<feFlood flood-opacity="0" result="BackgroundImageFix"/>
<feBlend mode="normal" in="SourceGraphic" in2="BackgroundImageFix" result="shape"/>
<feColorMatrix in="SourceAlpha" type="matrix" values="0 0 0 0 0 0 0 0 0 0 0 0 0 0 0 0 0 0 127 0" result="hardAlpha"/>
<feOffset dy="-4"/>
<feGaussianBlur stdDeviation="10"/>
<feComposite in2="hardAlpha" operator="arithmetic" k2="-1" k3="1"/>
<feColorMatrix type="matrix" values="0 0 0 0 0.920833 0 0 0 0 0.705972 0 0 0 0 0.705972 0 0 0 1 0"/>
<feBlend mode="normal" in2="shape" result="effect1_innerShadow_2_189"/>
<feGaussianBlur stdDeviation="0.5" result="effect2_foregroundBlur_2_189"/>
</filter>
<filter id="filter2_i_2_189" x="84.5" y="107.5" width="241.5" height="252" filterUnits="userSpaceOnUse" color-interpolation-filters="sRGB">
<feFlood flood-opacity="0" result="BackgroundImageFix"/>
<feBlend mode="normal" in="SourceGraphic" in2="BackgroundImageFix" result="shape"/>
<feColorMatrix in="SourceAlpha" type="matrix" values="0 0 0 0 0 0 0 0 0 0 0 0 0 0 0 0 0 0 127 0" result="hardAlpha"/>
<feOffset dy="-4"/>
<feGaussianBlur stdDeviation="2"/>
<feComposite in2="hardAlpha" operator="arithmetic" k2="-1" k3="1"/>
<feColorMatrix type="matrix" values="0 0 0 0 0.920833 0 0 0 0 0.705972 0 0 0 0 0.705972 0 0 0 1 0"/>
<feBlend mode="normal" in2="shape" result="effect1_innerShadow_2_189"/>
</filter>
<filter id="filter3_i_2_189" x="145" y="107.5" width="144" height="198.5" filterUnits="userSpaceOnUse" color-interpolation-filters="sRGB">
<feFlood flood-opacity="0" result="BackgroundImageFix"/>
<feBlend mode="normal" in="SourceGraphic" in2="BackgroundImageFix" result="shape"/>
<feColorMatrix in="SourceAlpha" type="matrix" values="0 0 0 0 0 0 0 0 0 0 0 0 0 0 0 0 0 0 127 0" result="hardAlpha"/>
<feOffset dy="-4"/>
<feGaussianBlur stdDeviation="5"/>
<feComposite in2="hardAlpha" operator="arithmetic" k2="-1" k3="1"/>
<feColorMatrix type="matrix" values="0 0 0 0 0.976471 0 0 0 0 0.827451 0 0 0 0 0.827451 0 0 0 1 0"/>
<feBlend mode="normal" in2="shape" result="effect1_innerShadow_2_189"/>
</filter>
<filter id="filter4_i_2_189" x="12.5" y="136.5" width="274.5" height="192.5" filterUnits="userSpaceOnUse" color-interpolation-filters="sRGB">
<feFlood flood-opacity="0" result="BackgroundImageFix"/>
<feBlend mode="normal" in="SourceGraphic" in2="BackgroundImageFix" result="shape"/>
<feColorMatrix in="SourceAlpha" type="matrix" values="0 0 0 0 0 0 0 0 0 0 0 0 0 0 0 0 0 0 127 0" result="hardAlpha"/>
<feOffset dy="-4"/>
<feGaussianBlur stdDeviation="10"/>
<feComposite in2="hardAlpha" operator="arithmetic" k2="-1" k3="1"/>
<feColorMatrix type="matrix" values="0 0 0 0 0.920833 0 0 0 0 0.705972 0 0 0 0 0.705972 0 0 0 1 0"/>
<feBlend mode="normal" in2="shape" result="effect1_innerShadow_2_189"/>
</filter>
<filter id="filter5_d_2_189" x="20" y="154.5" width="270.5" height="184" filterUnits="userSpaceOnUse" color-interpolation-filters="sRGB">
<feFlood flood-opacity="0" result="BackgroundImageFix"/>
<feColorMatrix in="SourceAlpha" type="matrix" values="0 0 0 0 0 0 0 0 0 0 0 0 0 0 0 0 0 0 127 0" result="hardAlpha"/>
<feOffset dy="4"/>
<feGaussianBlur stdDeviation="2"/>
<feComposite in2="hardAlpha" operator="out"/>
<feColorMatrix type="matrix" values="0 0 0 0 0.920833 0 0 0 0 0.705972 0 0 0 0 0.705972 0 0 0 1 0"/>
<feBlend mode="normal" in2="BackgroundImageFix" result="effect1_dropShadow_2_189"/>
<feBlend mode="normal" in="SourceGraphic" in2="effect1_dropShadow_2_189" result="shape"/>
</filter>
<filter id="filter6_i_2_189" x="84.5" y="152.5" width="105.5" height="208.5" filterUnits="userSpaceOnUse" color-interpolation-filters="sRGB">
<feFlood flood-opacity="0" result="BackgroundImageFix"/>
<feBlend mode="normal" in="SourceGraphic" in2="BackgroundImageFix" result="shape"/>
<feColorMatrix in="SourceAlpha" type="matrix" values="0 0 0 0 0 0 0 0 0 0 0 0 0 0 0 0 0 0 127 0" result="hardAlpha"/>
<feOffset dy="-4"/>
<feGaussianBlur stdDeviation="5"/>
<feComposite in2="hardAlpha" operator="arithmetic" k2="-1" k3="1"/>
<feColorMatrix type="matrix" values="0 0 0 0 0.976471 0 0 0 0 0.827451 0 0 0 0 0.827451 0 0 0 0.2 0"/>
<feBlend mode="normal" in2="shape" result="effect1_innerShadow_2_189"/>
</filter>
<filter id="filter7_i_2_189" x="107" y="4" width="155" height="114.5" filterUnits="userSpaceOnUse" color-interpolation-filters="sRGB">
<feFlood flood-opacity="0" result="BackgroundImageFix"/>
<feBlend mode="normal" in="SourceGraphic" in2="BackgroundImageFix" result="shape"/>
<feColorMatrix in="SourceAlpha" type="matrix" values="0 0 0 0 0 0 0 0 0 0 0 0 0 0 0 0 0 0 127 0" result="hardAlpha"/>
<feOffset dy="-4"/>
<feGaussianBlur stdDeviation="5"/>
<feComposite in2="hardAlpha" operator="arithmetic" k2="-1" k3="1"/>
<feColorMatrix type="matrix" values="0 0 0 0 0.920833 0 0 0 0 0.705972 0 0 0 0 0.705972 0 0 0 1 0"/>
<feBlend mode="normal" in2="shape" result="effect1_innerShadow_2_189"/>
</filter>
<filter id="filter8_i_2_189" x="1" y="266" width="328.5" height="101" filterUnits="userSpaceOnUse" color-interpolation-filters="sRGB">
<feFlood flood-opacity="0" result="BackgroundImageFix"/>
<feBlend mode="normal" in="SourceGraphic" in2="BackgroundImageFix" result="shape"/>
<feColorMatrix in="SourceAlpha" type="matrix" values="0 0 0 0 0 0 0 0 0 0 0 0 0 0 0 0 0 0 127 0" result="hardAlpha"/>
<feOffset dy="-4"/>
<feGaussianBlur stdDeviation="10"/>
<feComposite in2="hardAlpha" operator="arithmetic" k2="-1" k3="1"/>
<feColorMatrix type="matrix" values="0 0 0 0 0.920833 0 0 0 0 0.705972 0 0 0 0 0.705972 0 0 0 1 0"/>
<feBlend mode="normal" in2="shape" result="effect1_innerShadow_2_189"/>
</filter>
<filter id="filter9_i_2_189" x="22" y="261" width="244" height="69" filterUnits="userSpaceOnUse" color-interpolation-filters="sRGB">
<feFlood flood-opacity="0" result="BackgroundImageFix"/>
<feBlend mode="normal" in="SourceGraphic" in2="BackgroundImageFix" result="shape"/>
<feColorMatrix in="SourceAlpha" type="matrix" values="0 0 0 0 0 0 0 0 0 0 0 0 0 0 0 0 0 0 127 0" result="hardAlpha"/>
<feOffset dy="-4"/>
<feGaussianBlur stdDeviation="5"/>
<feComposite in2="hardAlpha" operator="arithmetic" k2="-1" k3="1"/>
<feColorMatrix type="matrix" values="0 0 0 0 0.975 0 0 0 0 0.82875 0 0 0 0 0.82875 0 0 0 0.2 0"/>
<feBlend mode="normal" in2="shape" result="effect1_innerShadow_2_189"/>
</filter>
<filter id="filter10_i_2_189" x="121" y="40" width="134.5" height="82.5" filterUnits="userSpaceOnUse" color-interpolation-filters="sRGB">
<feFlood flood-opacity="0" result="BackgroundImageFix"/>
<feBlend mode="normal" in="SourceGraphic" in2="BackgroundImageFix" result="shape"/>
<feColorMatrix in="SourceAlpha" type="matrix" values="0 0 0 0 0 0 0 0 0 0 0 0 0 0 0 0 0 0 127 0" result="hardAlpha"/>
<feOffset dy="4"/>
<feGaussianBlur stdDeviation="2"/>
<feComposite in2="hardAlpha" operator="arithmetic" k2="-1" k3="1"/>
<feColorMatrix type="matrix" values="0 0 0 0 0.976471 0 0 0 0 0.827451 0 0 0 0 0.827451 0 0 0 1 0"/>
<feBlend mode="normal" in2="shape" result="effect1_innerShadow_2_189"/>
</filter>
<filter id="filter11_i_2_189" x="94.5" y="-3" width="182" height="84" filterUnits="userSpaceOnUse" color-interpolation-filters="sRGB">
<feFlood flood-opacity="0" result="BackgroundImageFix"/>
<feBlend mode="normal" in="SourceGraphic" in2="BackgroundImageFix" result="shape"/>
<feColorMatrix in="SourceAlpha" type="matrix" values="0 0 0 0 0 0 0 0 0 0 0 0 0 0 0 0 0 0 127 0" result="hardAlpha"/>
<feOffset dy="-4"/>
<feGaussianBlur stdDeviation="5"/>
<feComposite in2="hardAlpha" operator="arithmetic" k2="-1" k3="1"/>
<feColorMatrix type="matrix" values="0 0 0 0 0.920833 0 0 0 0 0.705972 0 0 0 0 0.705972 0 0 0 1 0"/>
<feBlend mode="normal" in2="shape" result="effect1_innerShadow_2_189"/>
</filter>
<filter id="filter12_i_2_189" x="97.5" y="10" width="178" height="75" filterUnits="userSpaceOnUse" color-interpolation-filters="sRGB">
<feFlood flood-opacity="0" result="BackgroundImageFix"/>
<feBlend mode="normal" in="SourceGraphic" in2="BackgroundImageFix" result="shape"/>
<feColorMatrix in="SourceAlpha" type="matrix" values="0 0 0 0 0 0 0 0 0 0 0 0 0 0 0 0 0 0 127 0" result="hardAlpha"/>
<feOffset dy="4"/>
<feGaussianBlur stdDeviation="2"/>
<feComposite in2="hardAlpha" operator="arithmetic" k2="-1" k3="1"/>
<feColorMatrix type="matrix" values="0 0 0 0 0.976471 0 0 0 0 0.827451 0 0 0 0 0.827451 0 0 0 0.2 0"/>
<feBlend mode="normal" in2="shape" result="effect1_innerShadow_2_189"/>
</filter>
</defs>
</svg>
