<svg width="256" height="257" viewBox="0 0 256 257" fill="none" xmlns="http://www.w3.org/2000/svg">
<path d="M235.791 141.344C233.552 142.645 231.386 144.072 229.31 145.621C215.229 156.131 197.748 162.355 178.81 162.355C132.207 162.355 94.4278 124.664 94.4278 78.1704C94.4278 53.5271 105.041 31.3568 121.957 15.9612C124.733 13.434 125.661 9.42484 124.27 5.93726C122.936 2.59054 119.699 0.249795 116.113 0.59412C50.9499 6.85022 0 61.6293 0 128.28C0 199.129 57.5683 256.562 128.582 256.562C193.481 256.562 247.15 208.595 255.912 146.257C256.81 139.875 250.37 135.257 244.098 136.74C242.906 137.022 241.761 137.527 240.749 138.217C239.137 139.316 237.483 140.36 235.791 141.344Z" fill="white"/>
</svg>
