<svg width="128" height="118" viewBox="0 0 128 118" fill="none" xmlns="http://www.w3.org/2000/svg">
<path d="M54.1027 57.5908C58.4184 55.3919 63.0267 60.0001 60.8277 64.3158L54.2541 77.2173C53.2707 79.1474 53.6419 81.4911 55.1736 83.0228L65.4123 93.2615C68.8372 96.6864 65.8786 102.493 61.0946 101.735L46.7931 99.4704C44.6537 99.1315 42.5393 100.209 41.5559 102.139L34.9823 115.04C32.7834 119.356 26.3465 118.337 25.5888 113.553L23.3237 99.2511C22.9848 97.1117 21.3069 95.4337 19.1674 95.0949L4.86602 92.8297C0.0820377 92.072 -0.937462 85.6352 3.37823 83.4363L16.2797 76.8626C18.2098 75.8792 19.2871 73.7649 18.9482 71.6254L16.6831 57.324C15.9254 52.54 21.7321 49.5813 25.1571 53.0063L35.3958 63.245C36.9275 64.7767 39.2712 65.1479 41.2012 64.1645L54.1027 57.5908Z" fill="white"/>
<path d="M116.887 3.32228C117.019 3.21428 117.113 3.19764 117.175 3.19573C117.257 3.19323 117.366 3.21753 117.474 3.28674C117.583 3.35596 117.65 3.44408 117.683 3.51947C117.707 3.57716 117.732 3.66929 117.689 3.83376L115.629 11.7791C115.032 14.0856 115.987 16.5148 117.996 17.7962L124.915 22.2105C125.059 22.3018 125.104 22.386 125.125 22.445C125.152 22.5222 125.163 22.6329 125.131 22.7575C125.098 22.8821 125.035 22.9737 124.974 23.0277C124.926 23.0691 124.846 23.1208 124.677 23.1311L116.484 23.6273C114.105 23.7714 112.09 25.4305 111.492 27.737L109.433 35.6823C109.39 35.8468 109.324 35.9154 109.274 35.9538C109.209 36.0041 109.107 36.0482 108.979 36.0559C108.85 36.0637 108.744 36.0323 108.673 35.9902C108.619 35.9581 108.545 35.8979 108.483 35.7398L105.48 28.1012C104.608 25.8837 102.407 24.4799 100.029 24.624L91.8355 25.1202C91.6659 25.1305 91.5802 25.0888 91.5284 25.0534C91.4606 25.0073 91.3871 24.9239 91.34 24.8041C91.2929 24.6843 91.2899 24.5732 91.3081 24.4932C91.322 24.432 91.3563 24.3431 91.4875 24.2351L97.8241 19.018C99.6636 17.5034 100.319 14.9767 99.4467 12.7592L96.443 5.12059C96.3808 4.96246 96.394 4.86806 96.4115 4.80781C96.4345 4.72907 96.4911 4.63342 96.5905 4.55162C96.6898 4.46981 96.7946 4.4326 96.8762 4.42519C96.9387 4.41951 97.0339 4.4247 97.1772 4.51608L104.097 8.93033C106.106 10.2118 108.711 10.054 110.551 8.53944L116.887 3.32228Z" stroke="white" stroke-width="5"/>
</svg>
