<svg width="738" height="152" viewBox="0 0 738 152" fill="none" xmlns="http://www.w3.org/2000/svg">
<path d="M94.3441 28.6834C94.3441 12.842 107.186 0 123.027 0H709.317C725.158 0 738 12.842 738 28.6834C738 44.5248 725.158 57.3668 709.317 57.3668H123.028C107.186 57.3668 94.3441 44.5248 94.3441 28.6834Z" fill="url(#paint0_linear_127_2)"/>
<path d="M435.677 122.765C435.677 106.924 448.519 94.0816 464.36 94.0816H653.097C668.938 94.0816 681.781 106.924 681.781 122.765C681.781 138.606 668.938 151.448 653.097 151.448H464.36C448.519 151.448 435.677 138.606 435.677 122.765Z" fill="url(#paint1_linear_127_2)"/>
<path d="M514.269 94.0816H608.351C598.212 94.0816 589.994 85.8627 589.994 75.7242C589.994 65.5857 598.212 57.3668 608.351 57.3668H514.269C524.408 57.3668 532.627 65.5857 532.627 75.7242C532.627 85.8627 524.408 94.0816 514.269 94.0816Z" fill="white"/>
<path d="M57.3647 28.6824C57.3647 44.5232 44.5232 57.3647 28.6824 57.3647C12.8415 57.3647 0 44.5232 0 28.6824C0 12.8415 12.8415 0 28.6824 0C44.5232 0 57.3647 12.8415 57.3647 28.6824Z" fill="white"/>
<defs>
<linearGradient id="paint0_linear_127_2" x1="369" y1="0" x2="369" y2="151.448" gradientUnits="userSpaceOnUse">
<stop stop-color="white"/>
<stop offset="1" stop-color="white"/>
</linearGradient>
<linearGradient id="paint1_linear_127_2" x1="369" y1="0" x2="369" y2="151.448" gradientUnits="userSpaceOnUse">
<stop stop-color="white"/>
<stop offset="1" stop-color="white"/>
</linearGradient>
</defs>
</svg>
